<?xml version="1.0" encoding="iso-8859-1"?>
<!-- Generator: Adobe Illustrator 19.0.0, SVG Export Plug-In . SVG Version: 6.00 Build 0)  -->
<svg version="1.1" id="Layer_1" xmlns="http://www.w3.org/2000/svg" xmlns:xlink="http://www.w3.org/1999/xlink" x="0px" y="0px"
	 viewBox="0 0 502 502" style="enable-background:new 0 0 502 502;" xml:space="preserve">
<g>
	<path style="fill:#E6E6E6;" d="M394.754,492h-287.51c-16.598,0-30.053-13.455-30.053-30.053c0-16.598,13.455-30.053,30.053-30.053
		h287.509c16.598,0,30.053,13.455,30.053,30.053C424.807,478.545,411.351,492,394.754,492z"/>
	<g>
		<path d="M160.503,406c-0.401,0-0.805-0.024-1.213-0.073c-5.483-0.663-9.39-5.646-8.727-11.128
			c3.342-27.633,12.567-53.042,26.678-73.481c3.138-4.546,9.367-5.686,13.911-2.547c4.545,3.138,5.686,9.366,2.547,13.911
			c-12.276,17.781-20.327,40.092-23.281,64.519C169.805,402.275,165.49,406,160.503,406z"/>
	</g>
	<g>
		<path d="M207.007,313.716c-2.958,0-5.886-1.306-7.859-3.809c-3.419-4.337-2.676-10.625,1.661-14.044
			c7.748-6.109,16.064-10.832,24.718-14.037c5.178-1.919,10.932,0.725,12.851,5.904c1.918,5.179-0.726,10.933-5.904,12.851
			c-6.691,2.478-13.178,6.174-19.281,10.987C211.357,313.014,209.173,313.716,207.007,313.716z"/>
	</g>
	<g>
		<path d="M226.247,223.052c-1.797,0-3.616-0.484-5.255-1.5c-25.74-15.939-45.897-38.868-55.305-62.908
			c-2.013-5.143,0.525-10.944,5.668-12.957c5.145-2.012,10.944,0.526,12.957,5.668c7.863,20.096,25.07,39.484,47.209,53.192
			c4.695,2.908,6.145,9.071,3.237,13.767C232.867,221.371,229.594,223.052,226.247,223.052z"/>
	</g>
	<path style="fill:#E6E6E6;" d="M107.244,10h287.509c16.598,0,30.053,13.455,30.053,30.053s-13.455,30.053-30.053,30.053H107.244
		c-16.598,0-30.053-13.455-30.053-30.053S90.647,10,107.244,10z"/>
	<path d="M394.753,421.894h-6.878c-1.235-46.804-14.953-90.669-38.962-124.165c-15.546-21.689-34.284-37.524-54.825-46.729
		c20.542-9.205,39.279-25.039,54.825-46.729c24.008-33.496,37.727-77.361,38.962-124.165h6.878
		c22.085,0,40.054-17.968,40.054-40.053S416.839,0,394.753,0H107.245C85.16,0,67.191,17.968,67.191,40.053
		s17.968,40.053,40.054,40.053h6.878c1.235,46.804,14.953,90.669,38.962,124.165c15.546,21.689,34.284,37.524,54.825,46.729
		c-20.542,9.205-39.279,25.039-54.825,46.729c-24.008,33.496-37.727,77.361-38.962,124.165h-6.878
		c-22.085,0-40.054,17.968-40.054,40.053S85.16,502,107.245,502h287.509c22.085,0,40.054-17.968,40.054-40.053
		S416.839,421.894,394.753,421.894z M87.191,40.053C87.191,28.996,96.188,20,107.245,20h287.509
		c11.058,0,20.054,8.996,20.054,20.053s-8.996,20.053-20.054,20.053H107.245C96.188,60.106,87.191,51.111,87.191,40.053z
		 M134.13,80.106h233.739c-2.553,88.969-53.993,160.227-116.87,160.227S136.682,169.075,134.13,80.106z M250.999,261.667
		c62.877,0,114.317,71.258,116.869,160.227H134.13C136.682,332.925,188.122,261.667,250.999,261.667z M394.753,482H107.245
		c-11.058,0-20.054-8.996-20.054-20.053s8.996-20.053,20.054-20.053h287.509c11.058,0,20.054,8.996,20.054,20.053
		S405.811,482,394.753,482z"/>
</g>
<g>
</g>
<g>
</g>
<g>
</g>
<g>
</g>
<g>
</g>
<g>
</g>
<g>
</g>
<g>
</g>
<g>
</g>
<g>
</g>
<g>
</g>
<g>
</g>
<g>
</g>
<g>
</g>
<g>
</g>
</svg>
